<svg width="20" height="20" xmlns="http://www.w3.org/2000/svg" xml:space="preserve" viewBox="0 0 256 256"><path d="M189.3 37.8c-5.4.7-8.4 1.9-10.7 4-1.2 1.1-2.3 2.6-2.5 3.2-.2.7-.9 1.4-1.9 1.8-.8.3-2.1 1.2-2.7 1.9l-1.2 1.3 1.4 1.8c6.6 8.2 9.8 15.5 10.4 23.6.4 5.1-.3 10.4-2.5 17.5-.9 3.1-1.7 6.5-1.7 7.7 0 2 .1 2.3 1.9 3.4 4.1 2.6 5.6 7.1 3.5 11-1.3 2.6-5.6 6.5-10.5 9.5-2.1 1.3-3.6 2.5-3.5 2.6.2.1 2.5 1 5.1 2.1 16.4 6.5 23.8 12.4 28.9 23.1 1.9 4 3.6 11.4 3.6 15.5v2.6l2.9-.3c9-1.1 18.8-3.8 25.6-7.2 8.1-4 10.7-7.7 10.6-15.5-.1-10-4.2-18.8-11-24-3.1-2.4-4.8-3.1-14.2-6.3-10.6-3.5-13.7-5.7-14.5-10.3-.2-1.4 0-1.9 4.1-5.9 4.5-4.4 7.7-9.5 9-14.2.4-1.5.9-2.2 2.1-2.7 3.4-1.6 4.9-8.1 3-12.5-.6-1.2-1.3-2.3-1.5-2.3-.3 0-.5-1.8-.5-4.9 0-9-2.4-16.8-6-19.9-6.4-5.1-17.6-7.9-27.2-6.6z" fill="#877EFF"/><path d="M137.2 45.8c-4.9.5-9 2.7-12.2 6.4-1.7 1.9-3 2.9-3.6 2.9-2.2 0-5.8 1.6-8.1 3.8-3.5 3.1-3.6 3.5-2.5 6.3 2.1 4.8 3.9 14.7 3.9 21.1 0 1.9.3 3.4.8 4 1.2 1.7 2.7 7.1 2.7 10.3 0 5.5-1.9 10.9-5.2 14.5-.9 1-1.7 2-1.7 2.2 0 .8 8.5 4.3 12.6 5.3 2.5.6 4.7 1.1 5 1.2.8.2-.3 4-1.8 6-1.4 2-3.8 3.1-13.5 6-8.9 2.7-14.5 4.9-13.9 5.4.2.2 4.3 1.7 9 3.2 12.2 4 16.5 6.3 21.7 11.6 6.1 6.1 9.5 12.2 11.9 21.6.9 3.4 1.1 5.7 1.1 10.8v6.6h2.5c12.5 0 28.2-3.2 37.9-7.6 4.1-1.9 10-5.5 11.3-7 3.9-4.5 4.6-12.5 1.8-21.3-3.5-11.1-10.4-16.6-29.8-23.7-3.8-1.4-7.7-2.9-8.7-3.4-2.6-1.1-4.8-3.5-5.6-6.2l-.7-2.3 2.1-.5c8.1-2.1 14.6-5.2 19-9.1l2.6-2.3-2.4-2.2c-4.7-4.2-5.1-8.9-1.8-18.7 3.9-11.7 2.6-21.2-4.4-31.1-3.4-4.7-8.5-9.2-13.2-11.5-5.8-2.7-9.3-3.2-16.8-2.3z" fill="#877EFF"/><path d="M66.6 53.6c-4.2.4-8.7 1.6-11.1 2.8-2.3 1.2-5.1 3.9-6 6-.6 1.3-1.3 2.1-2.5 2.5-2.5.9-5 4.2-6.3 8.2-.9 3-1.1 4.6-1.1 11.3 0 7.4-.1 7.9-1.1 9-1.7 1.8-2.3 4.2-2 8.5.2 4.4 1.8 7.6 4.5 9.3 1.2.7 1.8 1.6 2.2 3.3 1.9 7 8.7 16.6 15.1 21.2 1.3.9 1.4 1.2 1 3.1-.5 3.1-3 6.5-6.1 8.3-1.5.9-6.8 3-11.8 4.6-13.2 4.4-15.7 5.7-20.6 10.5-3.3 3.3-4.4 4.8-6.3 8.7-4.9 10.1-5.9 20.4-2.8 27.7 5.2 12 38.8 21.5 69.1 19.7 20.9-1.3 40.9-7.3 49.2-14.7 7.1-6.4 7.5-19.1 1-32.6-1.8-3.9-2.9-5.3-6.2-8.7-4.8-4.8-7.2-6.1-21.3-10.7-7.5-2.6-10.5-3.7-12.3-5.2-2.7-2-4.4-4.8-4.9-7.7-.3-1.9-.2-2 2.2-3.8 5.8-4.4 13.1-15.2 14.1-20.9.2-1.3.7-1.9 2.1-2.6 1-.5 2.2-1.5 2.7-2.2 3.1-4.4 3.1-12.3-.1-15.8-.8-.8-.9-2.2-1.2-8.1-.4-10.8-2.6-18.3-6.3-22.1-6.9-7.2-20-10.9-33.2-9.6z" fill="#877EFF"/></svg>